<svg version="1.0" xmlns="http://www.w3.org/2000/svg"
                class="h-10 mr-3"
                width="51"
                height="70"
                viewBox="0 0 51 70">

<g transform="translate(0.000000,314.000000) scale(0.100000,-0.100000)"
fill="#000000" stroke="none">
<path d="M2191 3093 c-51 -18 -119 -82 -143 -133 -9 -19 -116 -420 -238 -890
-140 -541 -232 -877 -250 -915 -36 -75 -67 -105 -117 -112 -34 -4 -46 1 -110
46 -127 89 -330 297 -417 425 -17 26 -26 52 -26 79 0 40 5 45 225 260 195 190
229 227 257 285 31 63 33 73 33 173 0 100 -2 108 -30 154 -38 62 -101 110
-167 130 -58 17 -154 20 -163 5 -3 -5 -2 -27 4 -47 5 -21 12 -50 15 -64 5 -23
12 -27 53 -31 64 -6 102 -26 131 -68 21 -30 23 -44 19 -95 -2 -34 -11 -75 -20
-91 -9 -17 -115 -127 -236 -246 -247 -242 -260 -260 -261 -371 0 -86 14 -119
96 -224 148 -189 357 -382 481 -444 81 -41 156 -39 229 7 56 34 121 124 154
211 12 32 120 437 240 899 120 463 223 851 230 863 19 36 70 61 125 61 65 0
115 -26 137 -70 32 -63 20 -273 -23 -398 -10 -30 -18 -57 -16 -58 2 -2 29 -15
61 -29 39 -17 62 -23 69 -16 5 5 21 47 34 93 20 66 26 113 30 233 4 96 1 165
-6 192 -18 67 -70 133 -130 167 -47 26 -67 30 -140 33 -60 2 -99 -2 -130 -14z"/>
<path d="M2871 2609 c-73 -14 -216 -113 -209 -145 2 -6 25 -30 52 -52 l49 -41
44 38 c24 21 61 43 83 49 84 21 84 21 483 -382 202 -204 385 -397 407 -430 74
-108 91 -80 -305 -476 -190 -189 -345 -347 -345 -350 0 -3 22 -28 49 -54 l50
-49 350 348 c383 380 387 385 385 496 -1 69 -34 138 -109 229 -30 36 -210 223
-402 416 -292 295 -357 356 -403 377 -66 30 -120 38 -179 26z"/>
<path d="M441 2111 c-186 -187 -343 -354 -355 -376 -16 -32 -21 -58 -21 -130
0 -145 -10 -131 459 -603 226 -228 431 -425 455 -440 35 -20 61 -27 126 -30
98 -5 148 13 220 79 76 70 76 74 0 111 l-65 32 -34 -33 c-37 -36 -98 -50 -153
-37 -35 9 -825 794 -854 848 -23 45 -24 89 -3 130 9 17 144 157 301 311 156
155 303 303 325 330 l41 48 -49 50 c-26 27 -51 48 -54 47 -3 -1 -155 -153
-339 -337z"/>
<path d="M13810 2125 l0 -125 315 0 315 0 0 -630 0 -630 120 0 120 0 0 630 0
630 315 0 315 0 0 125 0 125 -750 0 -750 0 0 -125z"/>
<path d="M15570 1495 l0 -755 750 0 750 0 0 125 0 125 -630 0 -630 0 0 190 0
190 630 0 630 0 0 125 0 125 -630 0 -630 0 0 190 0 190 630 0 630 0 0 125 0
125 -750 0 -750 0 0 -755z"/>
<path d="M17340 1495 l0 -755 745 0 745 0 0 125 0 125 -630 0 -630 0 0 505 0
505 630 0 630 0 0 125 0 125 -745 0 -745 0 0 -755z"/>
<path d="M19100 1495 l0 -755 120 0 120 0 0 315 0 315 508 -2 507 -3 3 -312 2
-313 115 0 115 0 0 755 0 755 -115 0 -115 0 -2 -312 -3 -313 -507 -3 -508 -2
0 315 0 315 -120 0 -120 0 0 -755z"/>
<path d="M2485 2206 c-53 -25 -118 -88 -152 -146 -25 -42 -94 -283 -158 -555
-25 -110 -80 -335 -120 -500 -41 -165 -81 -343 -90 -395 -49 -279 -89 -366
-191 -412 -74 -32 -143 -7 -181 65 -28 54 -6 287 43 453 5 19 -2 24 -61 44
-36 12 -68 20 -71 17 -11 -10 -54 -230 -64 -326 -12 -110 -7 -184 16 -240 23
-55 78 -114 135 -146 104 -57 248 -31 342 60 78 76 122 186 163 408 14 78 54
257 89 397 35 140 83 338 105 440 49 215 145 571 165 610 7 14 33 44 56 64 39
36 45 38 94 34 68 -6 117 -39 291 -198 143 -130 218 -219 229 -271 15 -69 -94
-211 -333 -431 -154 -142 -184 -192 -184 -316 -1 -102 32 -181 104 -248 63
-59 120 -83 200 -87 l63 -2 -1 35 c0 19 -4 51 -8 71 -6 34 -10 37 -48 43 -57
9 -109 40 -138 82 -32 48 -39 136 -13 181 10 18 79 90 154 160 285 269 362
385 346 523 -12 104 -79 195 -277 375 -143 131 -249 208 -308 224 -64 18 -142
13 -197 -13z"/>
</g>
</svg>
